<svg width="75" height="21" viewBox="0 0 75 21" fill="none" xmlns="http://www.w3.org/2000/svg">
<g clip-path="url(#clip0_12_133)">
<path d="M0.697739 2.5C0.697739 1.39543 1.59317 0.5 2.69774 0.5H18.8271C19.9317 0.5 20.8271 1.39543 20.8271 2.5V18.5018C20.8271 19.6063 19.9317 20.5018 18.8271 20.5018H2.69774C1.59317 20.5018 0.697739 19.6063 0.697739 18.5018V2.5Z" fill="#19AA1E"/>
<path fill-rule="evenodd" clip-rule="evenodd" d="M0.697739 0.5H20.8271V7.06308L0.697739 3.9378V0.5Z" fill="#FFB919"/>
<path fill-rule="evenodd" clip-rule="evenodd" d="M0.697739 18.3142L20.8271 15.189V20.5019H0.697739V18.3142Z" fill="#82D714"/>
<path fill-rule="evenodd" clip-rule="evenodd" d="M0.697739 3.54283L7.72373 4.63292C8.59852 4.08287 9.63938 3.78118 10.7624 3.78118C12.3183 3.78118 13.7147 4.3604 14.733 5.37632C14.8613 5.50466 14.9821 5.63884 15.0953 5.77802L20.8271 6.66727V7.459L15.6774 6.65893C16.0598 7.38816 16.267 8.20073 16.267 9.03081C16.267 10.1026 16.0254 11.171 15.5264 12.2436L15.5113 12.2761L15.2999 12.7261H14.7992C13.7651 12.7261 13.079 13.0345 12.6303 13.5787C12.278 14.0062 12.075 14.583 12.0063 15.2122L12.0037 15.2322L11.9945 15.3322L11.9895 15.3764L11.9811 15.4614C11.9559 15.7422 11.9383 15.9806 11.9291 16.1748L20.8271 14.7938V15.5855L0.697739 18.7108V17.9191L9.60499 16.5356L9.60164 16.3589L9.6008 16.3089L9.59996 16.2831L9.59828 16.2431C9.58585 15.9676 9.56627 15.6925 9.53957 15.418L9.53286 15.3547L9.52196 15.2447C9.45822 14.6121 9.25692 14.0279 8.90634 13.5945C8.46181 13.0462 7.78245 12.7336 6.75669 12.7278H6.22493L6.01357 12.2769C5.50447 11.1935 5.25872 10.1142 5.25872 9.03164C5.26158 8.33244 5.40641 7.641 5.68456 6.99873C5.96271 6.35646 6.36844 5.77658 6.87746 5.29381L0.697739 4.33289V3.54283Z" fill="white"/>
<path fill-rule="evenodd" clip-rule="evenodd" d="M10.7624 4.56299C13.5722 4.56299 15.4803 6.71234 15.4803 9.03088C15.4803 9.59176 15.406 10.1666 15.2427 10.7569C15.036 11.5043 14.2874 11.895 13.5421 12.1091C11.8141 12.6055 11.3288 14.1274 11.222 15.1514L11.2137 15.2348C11.1854 15.5206 11.1649 15.7698 11.1522 15.9826C11.1412 16.1652 11.0068 16.3187 10.826 16.3468L10.4139 16.411C10.4009 16.413 10.3892 16.403 10.3892 16.3899C10.3788 15.9958 10.3519 15.6024 10.3087 15.2106L10.3062 15.1889C10.2075 14.1656 9.73227 12.6119 7.98323 12.1092C7.2377 11.8949 6.48888 11.5041 6.28212 10.7564C6.11888 10.1662 6.0446 9.59173 6.0446 9.03088C6.0446 6.71234 7.95186 4.56299 10.7624 4.56299Z" fill="#0073FA"/>
</g>
<path fill-rule="evenodd" clip-rule="evenodd" d="M34.4325 4.26367C31.4651 4.26367 29.241 6.05884 29.2594 9.17666H32.0171C31.9793 7.9299 32.7778 6.72061 34.4326 6.72061C35.6873 6.72061 36.4866 7.55153 36.4866 8.60995C36.4866 9.70587 35.6118 10.3101 34.2044 10.991C32.3593 11.8794 31.2563 12.2953 29.2594 12.9561V16.5464H39.5288V14.0904H32.9867C33.904 13.7046 34.8109 13.295 35.7067 12.8619C37.9318 11.8035 39.2436 10.6134 39.2436 8.4783C39.2436 5.90808 37.3034 4.26367 34.4325 4.26367ZM43.7131 6.90972H49.0382V4.45282H41.0509V16.5479H43.713L43.7131 6.90972ZM53.2217 4.45282H50.5596V16.5479H53.2024L58.167 8.81891V16.5479H60.8291V4.45282H58.167L53.2219 12.1819L53.2217 4.45282ZM74.1981 12.0119H71.4412C71.0219 13.3536 69.7478 14.2787 68.2457 14.2787C66.0591 14.2787 64.6325 12.4086 64.6325 10.5001C64.6325 8.59163 66.0206 6.72079 68.3219 6.72079C69.8433 6.72079 71.0226 7.64588 71.4411 8.98766H74.198C73.7988 6.28659 71.65 4.26404 68.2456 4.26404C64.4796 4.26404 61.9701 6.89093 61.9701 10.5004C61.9701 14.1091 64.4804 16.7361 68.2456 16.7361C71.65 16.7361 73.7988 14.7526 74.198 12.0124L74.1981 12.0119Z" fill="black"/>
<defs>
<clipPath id="clip0_12_133">
<rect x="0.259262" y="0.5" width="21" height="20" rx="4" fill="white"/>
</clipPath>
</defs>
</svg>
