<svg width="105" height="21" viewBox="0 0 105 21" fill="none" xmlns="http://www.w3.org/2000/svg">
  <g clip-path="url(#clip0_12_115)">
    <path d="M4.07254 15.3132C4.65147 16.0504 5.17838 16.827 5.64944 17.6373C6.05164 18.3994 6.21929 18.9161 6.51326 19.8343C6.6935 20.3415 6.85642 20.4929 7.20667 20.4929C7.5884 20.4929 7.76156 20.2354 7.89536 19.837C8.1732 18.9699 8.39122 18.3081 8.73517 17.6829C9.41009 16.4756 10.2487 15.4029 11.0728 14.3718C11.2959 14.08 12.7382 12.3801 13.3876 11.0388C13.3876 11.0388 14.1857 9.56529 14.1857 7.50749C14.1857 5.5826 13.3986 4.24756 13.3986 4.24756L11.1326 4.85393L9.7564 8.47564L9.41599 8.97505L9.34791 9.06549L9.2574 9.17874L9.09841 9.35963L8.87133 9.58653L7.64586 10.5842L4.58217 12.3518L4.07254 15.3132Z" fill="#34A853" />
    <path d="M0.910461 10.7911C1.65818 12.4978 3.1001 13.998 4.07568 15.3145L9.25739 9.18123C9.25739 9.18123 8.52738 10.1352 7.20312 10.1352C5.72815 10.1352 4.53651 8.95827 4.53651 7.47419C4.53651 6.4565 5.14925 5.75732 5.14925 5.75732L1.63182 6.69912L0.910461 10.7911Z" fill="#FBBC04" />
    <path d="M9.31523 0.811523C11.0362 1.36599 12.5092 2.52997 13.4002 4.24644L9.25896 9.17763C9.25896 9.17763 9.87169 8.46587 9.87169 7.45446C9.87169 5.93579 8.59191 4.8013 7.20941 4.8013C5.90208 4.8013 5.15121 5.75372 5.15121 5.75372V2.64715L9.31523 0.811523Z" fill="#4285F4" />
    <path d="M1.85968 2.99039C2.8876 1.76153 4.6963 0.496094 7.18975 0.496094C8.39949 0.496094 9.31092 0.813436 9.31092 0.813436L5.14729 5.75642H2.19734L1.85968 2.99039Z" fill="#1A73E8" />
    <path d="M0.910468 10.7909C0.910468 10.7909 0.222565 9.44482 0.222565 7.49476C0.222565 5.65166 0.93959 4.04057 1.85968 2.99023L5.14965 5.75665L0.910468 10.7909Z" fill="#EA4335" />
    <path d="M71.7 16.7152V6.20519H73.0514L76.7093 12.6051H76.7683L80.4263 6.20519H81.7777V16.7152H80.4263V10.4765L80.4853 8.71482H80.4263L77.1363 14.4836H76.3433L73.0533 8.71482H72.9943L73.0533 10.4765V16.7148L71.7 16.7152ZM85.7288 16.9354C84.9653 16.9354 84.3258 16.7152 83.8122 16.2748C83.2987 15.8344 83.0409 15.2524 83.0409 14.528C83.0409 13.7416 83.3439 13.1313 83.9516 12.6857C84.5592 12.2402 85.3077 12.018 86.1947 12.018C86.9881 12.018 87.639 12.1647 88.1486 12.4584V12.2528C88.1486 11.7243 87.9676 11.3011 87.6056 10.9834C87.2435 10.6657 86.7976 10.5064 86.2683 10.5064C85.8768 10.5064 85.5222 10.5992 85.2038 10.7817C84.8854 10.9641 84.6678 11.2221 84.5505 11.5446L83.3164 11.0164C83.4829 10.5858 83.8111 10.1906 84.3002 9.82021C84.7894 9.44978 85.436 9.26968 86.2392 9.26968C87.1601 9.26968 87.9235 9.53905 88.5308 10.077C89.138 10.6149 89.4414 11.3739 89.4414 12.3527V16.7015H88.149V15.7026H88.09C87.5509 16.5284 86.7626 16.9354 85.7288 16.9354ZM85.9492 15.7026C86.5072 15.7026 87.0137 15.4942 87.4694 15.079C87.9251 14.6637 88.1526 14.1745 88.1526 13.6043C87.7708 13.2909 87.1979 13.1344 86.434 13.1344C85.7776 13.1344 85.2829 13.276 84.9504 13.5603C84.6178 13.8446 84.4506 14.1769 84.4506 14.5583C84.4506 14.9107 84.6025 15.1895 84.9059 15.3951C85.2093 15.6008 85.5572 15.7034 85.9488 15.7034L85.9492 15.7026ZM94.5055 16.9354C93.9573 16.9354 93.4649 16.8175 93.0297 16.5831C92.5944 16.3487 92.2682 16.0546 92.0537 15.7022H91.9947L92.0537 16.7003V19.8709H90.7023V9.50838H91.9955V10.5064H92.0545C92.2698 10.1541 92.5952 9.86071 93.0305 9.62556C93.4657 9.3904 93.9584 9.27322 94.5062 9.27322C95.4366 9.27322 96.2398 9.64011 96.9155 10.3743C97.5912 11.1085 97.9292 12.018 97.9292 13.1045C97.9292 14.191 97.5908 15.101 96.9155 15.8348C96.2402 16.5685 95.4366 16.9358 94.5062 16.9358L94.5055 16.9354ZM94.2851 15.7026C94.912 15.7026 95.4499 15.4651 95.9009 14.9948C96.3519 14.5245 96.5766 13.8914 96.5766 13.1085C96.5766 12.3255 96.3515 11.6928 95.9009 11.2221C95.4503 10.7514 94.9116 10.5143 94.2851 10.5143C93.6487 10.5143 93.1072 10.749 92.6617 11.219C92.2162 11.6889 91.9939 12.32 91.9939 13.1124C91.9939 13.9048 92.2166 14.5359 92.6617 15.0058C93.1068 15.4757 93.6483 15.7105 94.2851 15.7105V15.7026ZM101.52 16.9354C100.717 16.9354 100.054 16.7396 99.5297 16.3483C99.0056 15.9571 98.6246 15.4675 98.3767 14.8804L99.5809 14.381C99.9626 15.2854 100.614 15.7309 101.535 15.7309C101.956 15.7309 102.302 15.6381 102.571 15.4557C102.84 15.2732 102.975 15.0251 102.975 14.7219C102.975 14.2524 102.647 13.9339 101.991 13.7679L100.536 13.416C100.076 13.2988 99.6403 13.0758 99.2291 12.7482C98.8178 12.4207 98.612 11.9775 98.612 11.4203C98.612 10.7844 98.8934 10.2681 99.4565 9.87094C100.02 9.47377 100.688 9.27637 101.462 9.27637C102.098 9.27637 102.666 9.42068 103.166 9.70893C103.655 9.98655 104.034 10.4247 104.238 10.9492L103.063 11.4337C102.799 10.7978 102.25 10.4797 101.418 10.4797C101.016 10.4797 100.678 10.563 100.404 10.729C100.131 10.8949 99.9929 11.1206 99.9929 11.4046C99.9929 11.8155 100.308 12.0943 100.948 12.2414L102.372 12.5788C103.048 12.7353 103.547 13.0046 103.87 13.3861C104.194 13.7675 104.355 14.1985 104.355 14.6783C104.355 15.3239 104.091 15.858 103.562 16.2929C103.033 16.7278 102.353 16.9386 101.516 16.9386L101.52 16.9354ZM31.652 10.449H26.1087V12.0927H30.044C29.85 14.3971 27.9307 15.3802 26.1193 15.3802C25.5453 15.3828 24.9765 15.2711 24.4462 15.0516C23.9159 14.8322 23.4346 14.5093 23.0305 14.1019C22.6265 13.6945 22.3077 13.2108 22.0928 12.6789C21.8779 12.1471 21.7712 11.5778 21.779 11.0042C21.779 8.51624 23.7065 6.6 26.1236 6.6C27.989 6.6 29.0869 7.78836 29.0869 7.78836L30.2388 6.59685C30.2388 6.59685 28.7603 4.95312 26.0646 4.95312C22.6318 4.95312 19.9754 7.84852 19.9754 10.9759C19.9754 14.04 22.4743 17.029 26.1523 17.029C29.3872 17.029 31.7563 14.8143 31.7563 11.5394C31.7563 10.8489 31.656 10.4494 31.656 10.4494L31.652 10.449Z" fill="#767676" />
    <path d="M36.2029 9.28008C33.9283 9.28008 32.2982 11.0567 32.2982 13.1291C32.2982 15.2321 33.8795 17.0418 36.2336 17.0418C38.3614 17.0418 40.1044 15.4169 40.1044 13.1739C40.1044 10.6033 38.0765 9.2793 36.2068 9.2793L36.2029 9.28008ZM36.2253 10.8047C37.3442 10.8047 38.4039 11.7083 38.4039 13.1641C38.4039 14.5892 37.3481 15.5196 36.2198 15.5196C34.9802 15.5196 34.0022 14.5274 34.0022 13.1535C34.0022 11.8094 34.9684 10.8051 36.2249 10.8051L36.2253 10.8047Z" fill="#767676" />
    <path d="M44.6545 9.28008C42.3799 9.28008 40.7498 11.0567 40.7498 13.1291C40.7498 15.2321 42.3311 17.0418 44.6852 17.0418C46.813 17.0418 48.556 15.4169 48.556 13.1739C48.556 10.6033 46.5281 9.2793 44.6584 9.2793L44.6545 9.28008ZM44.6769 10.8047C45.7958 10.8047 46.8555 11.7083 46.8555 13.1641C46.8555 14.5892 45.7997 15.5196 44.6714 15.5196C43.4318 15.5196 42.4538 14.5274 42.4538 13.1535C42.4538 11.8094 43.42 10.8051 44.6765 10.8051L44.6769 10.8047Z" fill="#767676" />
    <path d="M52.9762 9.28012C50.8885 9.28012 49.2471 11.1075 49.2471 13.1582C49.2471 15.494 51.1494 17.0434 52.9396 17.0434C54.0467 17.0434 54.635 16.6041 55.0702 16.0996V16.8649C55.0702 18.2038 54.2564 19.006 53.0239 19.006C51.8373 19.006 51.2427 18.1244 51.0357 17.6242L49.543 18.2479C50.0727 19.3666 51.1384 20.5338 53.0368 20.5338C55.1127 20.5338 56.6952 19.2274 56.6952 16.4834V9.51134H55.0667V10.1688C54.5661 9.6301 53.8814 9.27816 52.9731 9.27816L52.9762 9.28012ZM53.1273 10.8019C54.1513 10.8019 55.2021 11.6749 55.2021 13.1665C55.2021 14.6828 54.1533 15.518 53.1045 15.518C51.9916 15.518 50.9558 14.6152 50.9558 13.1806C50.9558 11.6863 52.031 10.8016 53.1273 10.8016V10.8019ZM63.963 9.28012C61.9937 9.28012 60.3397 10.8452 60.3397 13.1563C60.3397 15.6006 62.1826 17.0509 64.1519 17.0509C65.7953 17.0509 66.8043 16.1523 67.4057 15.3474L66.0676 14.4547C65.7194 14.995 65.1365 15.5235 64.1649 15.5235C63.0728 15.5235 62.5711 14.9258 62.2602 14.347L67.4682 12.1842L67.1979 11.555C66.6942 10.3155 65.5206 9.28051 63.9709 9.28051L63.963 9.28012ZM64.0307 10.7728C64.7406 10.7728 65.2507 11.1504 65.4683 11.6018L61.9902 13.0544C61.8407 11.9297 62.906 10.7728 64.0307 10.7728ZM57.8522 16.8196H59.5625V5.37646H57.8522V16.8196Z" fill="#767676" />
  </g>
  <defs>
    <clipPath id="clip0_12_115">
      <rect width="104.138" height="20" fill="white" transform="translate(0.19812 0.5)" />
    </clipPath>
  </defs>
</svg>