<svg width="20" height="21" viewBox="0 0 20 21" fill="none" xmlns="http://www.w3.org/2000/svg">
  <mask id="mask0_13_176" style="mask-type:luminance" maskUnits="userSpaceOnUse" x="0" y="0" width="20" height="21">
    <path d="M20 0.5H0V20.5H20V0.5Z" fill="white" />
  </mask>
  <g mask="url(#mask0_13_176)">
    <path d="M14.5 12.2998C17.525 12.2998 20 9.83581 20 6.79981C20 3.7638 17.525 1.2998 14.5 1.2998C11.464 1.2998 9 3.7638 9 6.79981C9 9.83581 11.464 12.2998 14.5 12.2998Z" fill="#299400" />
    <path d="M14.555 3.16992C16.3897 3.16992 17.635 4.56692 17.635 6.07392C17.635 6.67892 17.5016 7.20692 17.1904 7.86692C15.3667 7.86692 15.0331 9.06592 14.9551 9.86892L14.9001 10.5399H14.2103L14.1549 9.86892C14.077 9.06592 13.7433 7.86692 11.9196 7.86692C11.6084 7.20692 11.475 6.67892 11.475 6.07392C11.475 4.56692 12.7203 3.16992 14.555 3.16992Z" fill="white" />
    <path d="M8.54975 7.5C7.51154 7.50055 6.49676 7.80575 5.63361 8.3771C4.77046 8.9484 4.09765 9.76025 3.70018 10.71C3.30272 11.6598 3.19842 12.7048 3.40046 13.7133C3.60249 14.7217 4.10182 15.6483 4.83534 16.3758C5.7864 17.3176 8.02464 18.68 8.15709 20.1112C8.1769 20.325 8.33384 20.5 8.54975 20.5C8.76565 20.5 8.92324 20.325 8.94244 20.1112C9.07494 18.68 11.3113 17.3199 12.2618 16.3787C12.9962 15.6514 13.4963 14.7249 13.699 13.7162C13.9017 12.7075 13.7978 11.6619 13.4005 10.7116C13.0032 9.76135 12.3304 8.94905 11.467 8.3774C10.6035 7.80575 9.58844 7.50045 8.54975 7.5ZM8.54975 14.479C8.31384 14.479 8.08019 14.4329 7.86225 14.3435C7.64429 14.2541 7.44625 14.1231 7.2794 13.9579C7.1126 13.7927 6.98024 13.5966 6.88999 13.3808C6.79969 13.165 6.75322 12.9336 6.75322 12.7C6.75322 12.4664 6.79969 12.2351 6.88999 12.0192C6.98024 11.8034 7.1126 11.6072 7.2794 11.442C7.44625 11.2769 7.64429 11.1458 7.86225 11.0564C8.08019 10.967 8.31384 10.921 8.54975 10.921C9.02624 10.921 9.48324 11.1084 9.82014 11.442C10.157 11.7757 10.3463 12.2282 10.3463 12.7C10.3463 13.1718 10.157 13.6243 9.82014 13.9579C9.48324 14.2915 9.02624 14.479 8.54975 14.479Z" fill="#FF4433" />
    <path d="M9.67225 5.59894C9.67225 5.26043 9.64475 4.91943 9.58625 4.58643H4.88477V6.50594H7.57675C7.5216 6.81254 7.40495 7.10479 7.23375 7.36509C7.06255 7.62539 6.84045 7.84834 6.58075 8.02044V9.26544H8.18675C9.13025 8.39794 9.67175 7.11544 9.67175 5.59894H9.67225Z" fill="#2A84FC" />
    <path d="M4.98477 10.4689C6.32875 10.4689 7.46275 10.0279 8.28875 9.26594L6.68225 8.02044C6.23525 8.32444 5.65875 8.49644 4.98627 8.49644C3.68627 8.49644 2.58327 7.61944 2.18777 6.43994H0.530273V7.72394C0.945443 8.54934 1.58184 9.24314 2.36842 9.72784C3.15501 10.2125 4.06083 10.4691 4.98477 10.4689Z" fill="#00AC47" />
    <path d="M2.18632 6.44008C1.9775 5.82103 1.9775 5.15061 2.18632 4.53157V3.24707H0.53032C0.1816 3.94165 0 4.70811 0 5.48532C0 6.26253 0.1816 7.02898 0.53032 7.72358L2.18632 6.43958V6.44008Z" fill="#FFBA00" />
    <path d="M4.98477 2.47284C5.69545 2.46133 6.38215 2.72962 6.89675 3.21985L8.31975 1.79684C7.4173 0.950148 6.22215 0.485539 4.98477 0.500343C4.06063 0.500105 3.15463 0.756834 2.368 1.24185C1.58137 1.72686 0.945098 2.42105 0.530273 3.24685L2.18627 4.53185C2.57977 3.35035 3.68427 2.47335 4.98477 2.47335V2.47284Z" fill="#FC2C25" />
  </g>
</svg>