<svg width="100" height="20" viewBox="0 0 100 20" fill="none" xmlns="http://www.w3.org/2000/svg">
  <g clip-path="url(#clip0_13_193)">
    <path fill-rule="evenodd" clip-rule="evenodd" d="M19.7263 9.7869C19.7263 4.38145 15.3103 0 9.8626 0C4.41488 0 -0.00115204 4.38173 -0.00115204 9.7869C-0.00115204 15.1921 4.41502 19.5745 9.8626 19.5745C15.3102 19.5745 19.7263 15.1925 19.7263 9.7869Z" fill="#FC3F1D" />
    <path fill-rule="evenodd" clip-rule="evenodd" d="M11.1787 5.5461H10.2745C8.58958 5.5461 7.72634 6.40239 7.72634 7.62616C7.72634 9.01275 8.34281 9.66509 9.57596 10.5212L10.6034 11.2148L7.64437 15.619H5.42506L8.09632 11.7039C6.57545 10.603 5.71264 9.54255 5.71264 7.78898C5.71264 5.5461 7.27439 4.03711 10.2745 4.03711H13.2336V15.66H11.1787V5.5461Z" fill="white" />
    <path fill-rule="evenodd" clip-rule="evenodd" d="M31.1714 0.0185547C26.7975 0.0185547 23.2522 3.53648 23.2522 7.87658C23.2522 10.0456 24.1382 12.0098 25.5704 13.432C27.0035 14.8546 30.3792 16.9133 30.5773 19.0744C30.6072 19.3986 30.8437 19.6639 31.1714 19.6639C31.4992 19.6639 31.7356 19.3986 31.7655 19.0744C31.9636 16.9133 35.3393 14.8546 36.7724 13.432C38.2047 12.0098 39.0906 10.0456 39.0906 7.87658C39.0906 3.53648 35.5452 0.0185547 31.1714 0.0185547Z" fill="#FF4433" />
    <path fill-rule="evenodd" clip-rule="evenodd" d="M31.1714 10.6274C32.7023 10.6274 33.943 9.3958 33.943 7.87716C33.943 6.35804 32.7023 5.12646 31.1714 5.12646C29.6404 5.12646 28.3998 6.35804 28.3998 7.87716C28.3998 9.3958 29.6404 10.6274 31.1714 10.6274Z" fill="white" />
    <path fill-rule="evenodd" clip-rule="evenodd" d="M91.3622 14.9415H90.1836V11.5271H91.4229C92.5135 11.5271 93.1533 12.015 93.1533 13.2445C93.1533 14.4738 92.446 14.9415 91.3622 14.9415ZM96.7155 6.27571V16.9327H99.2607V6.27571H96.7155ZM87.645 6.27571V16.9327H91.5103C94.0085 16.9327 95.7793 15.6633 95.7793 13.1576C95.7793 10.7854 94.1971 9.53629 91.5506 9.53629H90.1836V6.27536L87.645 6.27571ZM86.1502 8.26678V6.27571H77.6321V8.26678H80.622V16.9332H83.1606V8.26678H86.1502ZM72.3865 15.1492C71.0397 15.1492 70.3532 14.0734 70.3532 11.6144C70.3532 9.13562 71.0802 8.05978 72.5146 8.05978C73.9016 8.05978 74.5819 9.13562 74.5819 11.5944C74.5819 14.0734 73.8546 15.1492 72.3865 15.1492ZM70.1646 6.27571H67.8145V19.9998H70.3532V15.6833C70.9996 16.6321 71.9353 17.1401 73.0265 17.1401C75.4978 17.1401 77.208 15.1755 77.208 11.5942C77.208 8.03262 75.5447 6.0685 73.154 6.0685C71.9558 6.0685 70.9725 6.61624 70.2926 7.65188L70.1646 6.27571ZM63.2288 14.3876C62.9055 14.8552 62.3063 15.2361 61.4107 15.2361C60.3467 15.2361 59.808 14.6415 59.808 13.7326C59.808 12.5233 60.6836 12.0823 62.8652 12.0823H63.2288V14.3876ZM65.7674 9.66351C65.7674 7.08442 64.4407 6.10871 61.7541 6.10871C60.0706 6.10871 58.7443 6.63674 57.9763 7.08442V9.18242C58.6566 8.66808 60.1514 8.12005 61.4577 8.12005C62.6699 8.12005 63.2288 8.541 63.2288 9.69024V10.2782H62.818C58.9325 10.2782 57.2087 11.5544 57.2087 13.7128C57.2087 15.8709 58.5285 17.0804 60.495 17.0804C61.9896 17.0804 62.6294 16.5928 63.1209 16.0848H63.2288C63.2488 16.3585 63.3364 16.7194 63.4174 16.9333H65.8952C65.8077 16.0647 65.7674 15.1961 65.7674 14.3275V9.66351ZM54.0913 16.9337H57.1014L51.8289 9.20256L56.6098 2.21338H53.9835L49.3912 8.98869V2.21338H46.8121V16.9331H49.3912V10.0241L54.0913 16.9337Z" fill="black" />
  </g>
  <defs>
    <clipPath id="clip0_13_193">
      <rect width="99.2593" height="20" fill="white" />
    </clipPath>
  </defs>
</svg>