<svg width="131" height="71" viewBox="0 0 131 71" fill="none" xmlns="http://www.w3.org/2000/svg">
<path d="M109.643 45.7513V49.5742C109.643 51.4091 110.546 52.1482 111.808 52.1482C113.069 52.1482 113.973 51.4091 113.973 49.5742V45.7513H113.342V49.5742C113.342 50.0075 113.333 51.579 111.808 51.579C110.282 51.579 110.274 50.0075 110.274 49.5742V45.7513H109.643Z" fill="#586C8A" stroke="#586C8A" stroke-width="0.5" stroke-miterlimit="2" stroke-linejoin="round"/>
<path d="M99.8508 51.5947C100.11 51.8702 100.561 52.1791 101.179 52.1457V51.5864C100.745 51.6031 100.461 51.3776 100.31 51.2275C100.978 50.5597 101.262 49.7583 101.262 48.9151C101.262 47.0787 99.8174 45.7513 97.9801 45.7513C96.1427 45.7513 94.6978 47.1121 94.6978 48.9652C94.6978 50.8185 96.1593 52.1457 97.9801 52.1457C98.9071 52.1457 99.5085 51.8285 99.8508 51.5947ZM95.6165 50.2257C95.9922 50.0922 96.3263 50.0421 96.7106 50.0421C97.0447 50.0421 98.2808 50.0838 99.4166 51.2024C99.1492 51.3776 98.6982 51.5864 97.9884 51.5864C96.9194 51.5864 96.0675 51.0604 95.6165 50.2257ZM99.8843 50.8268C99.0909 50.0338 97.9968 49.4828 96.7607 49.4828C96.2262 49.4828 95.7752 49.5829 95.4077 49.7082C95.3408 49.4578 95.3158 49.2157 95.3158 48.9652C95.3158 47.4209 96.4768 46.3106 97.9884 46.3106C99.4751 46.3106 100.644 47.3792 100.644 48.9151C100.644 49.8584 100.227 50.4678 99.8843 50.8268Z" fill="#586C8A" stroke="#586C8A" stroke-width="0.5" stroke-miterlimit="2" stroke-linejoin="round"/>
<path d="M87.5746 45.7513H86.8762V52.1482H87.5746V45.7513Z" fill="#586C8A" stroke="#586C8A" stroke-width="0.5" stroke-miterlimit="2" stroke-linejoin="round"/>
<path d="M66.3444 45.7513H65.646V52.1482H66.3444V45.7513Z" fill="#586C8A" stroke="#586C8A" stroke-width="0.5" stroke-miterlimit="2" stroke-linejoin="round"/>
<path d="M53.9136 52.1482H57.2657V51.569H54.5664V45.7513H53.9136V52.1482Z" fill="#586C8A" stroke="#586C8A" stroke-width="0.5" stroke-miterlimit="2" stroke-linejoin="round"/>
<path d="M47.4633 47.4383C46.9398 46.3693 45.8846 45.7513 44.5847 45.7513C42.7782 45.7513 41.343 47.0958 41.343 48.9331C41.343 50.8204 42.8034 52.1482 44.6352 52.1482C45.8593 52.1482 46.9062 51.5052 47.4886 50.4279H46.7457C46.2392 51.2295 45.3951 51.5887 44.6352 51.5887C43.1495 51.5887 41.9678 50.4529 41.9678 48.9331C41.9678 47.5217 43.0229 46.3108 44.5931 46.3108C45.9353 46.3108 46.5515 47.1794 46.7204 47.4383H47.4633Z" fill="#586C8A" stroke="#586C8A" stroke-width="0.5" stroke-miterlimit="2" stroke-linejoin="round"/>
<path d="M130.035 32.5913C130.063 28.6217 127.952 23.7796 122.13 23.7796C116.897 23.7796 114.112 28.0587 114.112 31.8592C114.112 36.4762 117.601 39.9108 122.13 39.9108C125.619 39.9108 128.432 37.8557 129.669 34.5337H127.503C126.546 36.6452 124.549 38.0245 122.13 38.0245C118.895 38.0245 116.532 35.6598 116.278 32.5913H130.035ZM116.278 30.705C116.785 27.7772 119.176 25.6658 122.13 25.6658C124.802 25.6658 127.194 27.5802 127.785 30.705H116.278Z" fill="#586C8A" stroke="#586C8A" stroke-width="0.5" stroke-miterlimit="2" stroke-linejoin="round"/>
<path d="M128.778 49.2456C128.789 47.6715 127.957 45.7513 125.658 45.7513C123.592 45.7513 122.493 47.4482 122.493 48.9553C122.493 50.7862 123.87 52.1482 125.658 52.1482C127.035 52.1482 128.145 51.3333 128.634 50.016H127.778C127.401 50.8532 126.613 51.4002 125.658 51.4002C124.38 51.4002 123.448 50.4625 123.348 49.2456H128.778ZM123.348 48.4977C123.548 47.3366 124.492 46.4994 125.658 46.4994C126.712 46.4994 127.656 47.2585 127.89 48.4977H123.348Z" fill="#586C8A" stroke="#586C8A" stroke-width="0.5" stroke-miterlimit="2" stroke-linejoin="round"/>
<path d="M76.4009 39.9108H78.5524V31.2691C78.5524 26.833 81.2273 25.7096 83.4369 25.7096C88.4087 25.7096 88.4959 30.4625 88.4959 31.6148V39.9108H90.6475V31.6148C90.6475 25.9976 87.3038 23.7796 83.6986 23.7796C81.6052 23.7796 79.7154 24.6437 78.4943 26.4297H78.436V24.1541H76.4009V39.9108Z" fill="#586C8A" stroke="#586C8A" stroke-width="0.5" stroke-miterlimit="2" stroke-linejoin="round"/>
<path d="M95.3962 39.9108H97.5478V31.2691C97.5478 26.833 100.223 25.7096 102.432 25.7096C107.404 25.7096 107.491 30.4625 107.491 31.6148V39.9108H109.643V31.6148C109.643 25.9976 106.299 23.7796 102.694 23.7796C100.601 23.7796 98.7108 24.6437 97.4896 26.4297H97.4314V24.1541H95.3962V39.9108Z" fill="#586C8A" stroke="#586C8A" stroke-width="0.5" stroke-miterlimit="2" stroke-linejoin="round"/>
<path d="M74.0264 52.1482H74.8701V48.7213C74.8701 46.9622 75.9191 46.5167 76.7856 46.5167C78.7353 46.5167 78.7695 48.4014 78.7695 48.8584V52.1482H79.6133V48.8584C79.6133 46.6309 78.302 45.7513 76.8883 45.7513C76.0673 45.7513 75.3262 46.094 74.8474 46.8022H74.8245V45.8999H74.0264V52.1482Z" fill="#586C8A" stroke="#586C8A" stroke-width="0.5" stroke-miterlimit="2" stroke-linejoin="round"/>
<path d="M5.65673 11.264C8.78086 11.264 11.3135 8.74248 11.3135 5.63201C11.3135 2.52153 8.78086 0 5.65673 0C2.5326 0 0 2.52153 0 5.63201C0 8.74248 2.5326 11.264 5.65673 11.264Z" fill="#E3BAD1"/>
<path d="M17.8082 16.1312C20.3152 16.1312 22.3475 14.1077 22.3475 11.6117C22.3475 9.11562 20.3152 7.09216 17.8082 7.09216C15.3011 7.09216 13.2688 9.11562 13.2688 11.6117C13.2688 14.1077 15.3011 16.1312 17.8082 16.1312Z" fill="#E3BAD1"/>
<path d="M24.4426 23.5014C26.6796 23.5014 28.4931 21.6959 28.4931 19.4686C28.4931 17.2414 26.6796 15.4359 24.4426 15.4359C22.2056 15.4359 20.3921 17.2414 20.3921 19.4686C20.3921 21.6959 22.2056 23.5014 24.4426 23.5014Z" fill="#E3BAD1"/>
<path d="M27.7249 31.1498C29.3062 31.1498 30.5881 29.8735 30.5881 28.2991C30.5881 26.7246 29.3062 25.4483 27.7249 25.4483C26.1435 25.4483 24.8616 26.7246 24.8616 28.2991C24.8616 29.8735 26.1435 31.1498 27.7249 31.1498Z" fill="#E3BAD1"/>
<path d="M27.9345 39.2154C29.4002 39.2154 30.5883 38.0325 30.5883 36.5733C30.5883 35.114 29.4002 33.9311 27.9345 33.9311C26.4689 33.9311 25.2808 35.114 25.2808 36.5733C25.2808 38.0325 26.4689 39.2154 27.9345 39.2154Z" fill="#E3BAD1"/>
<path d="M24.4427 47.4201C25.5998 47.4201 26.5378 46.4862 26.5378 45.3342C26.5378 44.1821 25.5998 43.2482 24.4427 43.2482C23.2857 43.2482 22.3477 44.1821 22.3477 45.3342C22.3477 46.4862 23.2857 47.4201 24.4427 47.4201Z" fill="#E3BAD1"/>
<path d="M18.6462 52.9826C19.379 52.9826 19.9731 52.3911 19.9731 51.6615C19.9731 50.9319 19.379 50.3404 18.6462 50.3404C17.9134 50.3404 17.3193 50.9319 17.3193 51.6615C17.3193 52.3911 17.9134 52.9826 18.6462 52.9826Z" fill="#E3BAD1"/>
<path d="M9.42796 59.9356C10.1608 59.9356 10.7548 59.3442 10.7548 58.6145C10.7548 57.8849 10.1608 57.2935 9.42796 57.2935C8.69514 57.2935 8.10107 57.8849 8.10107 58.6145C8.10107 59.3442 8.69514 59.9356 9.42796 59.9356Z" fill="#E3BAD1"/>
<path d="M3.42208 62.856C4.07776 62.856 4.60929 62.3268 4.60929 61.674C4.60929 61.0212 4.07776 60.4919 3.42208 60.4919C2.7664 60.4919 2.23486 61.0212 2.23486 61.674C2.23486 62.3268 2.7664 62.856 3.42208 62.856Z" fill="#E3BAD1"/>
<path d="M30.3787 59.6576C27.2545 59.6576 24.7219 62.1791 24.7219 65.2896C24.7219 68.4 27.2545 70.9216 30.3787 70.9216C33.5028 70.9216 36.0354 68.4 36.0354 65.2896C36.0354 62.1791 33.5028 59.6576 30.3787 59.6576Z" fill="#E3BAD1"/>
<path d="M18.0178 54.3732C15.6265 54.3732 13.688 56.3033 13.688 58.6841C13.688 61.065 15.6265 62.9951 18.0178 62.9951C20.4091 62.9951 22.3477 61.065 22.3477 58.6841C22.3477 56.3033 20.4091 54.3732 18.0178 54.3732Z" fill="#E3BAD1"/>
<path d="M11.523 47.6982C9.24738 47.6982 7.40264 49.5037 7.40264 51.731C7.40264 53.9583 9.24738 55.7638 11.523 55.7638C13.7986 55.7638 15.6433 53.9583 15.6433 51.731C15.6433 49.5037 13.7986 47.6982 11.523 47.6982Z" fill="#E3BAD1"/>
<path d="M7.8916 39.2155C6.31025 39.2155 5.02832 40.4918 5.02832 42.0662C5.02832 43.6407 6.31025 44.917 7.8916 44.917C9.47295 44.917 10.7549 43.6407 10.7549 42.0662C10.7549 40.4918 9.47295 39.2155 7.8916 39.2155Z" fill="#E3BAD1"/>
<path d="M7.33281 31.2889C5.90574 31.2889 4.74887 32.4407 4.74887 33.8616C4.74887 35.2824 5.90574 36.4342 7.33281 36.4342C8.75988 36.4342 9.91675 35.2824 9.91675 33.8616C9.91675 32.4407 8.75988 31.2889 7.33281 31.2889Z" fill="#E3BAD1"/>
<path d="M10.9643 23.7796C9.84574 23.7796 8.939 24.6824 8.939 25.796C8.939 26.9096 9.84574 27.8124 10.9643 27.8124C12.0828 27.8124 12.9895 26.9096 12.9895 25.796C12.9895 24.6824 12.0828 23.7796 10.9643 23.7796Z" fill="#E3BAD1"/>
<path d="M15.8528 18.2171C15.12 18.2171 14.5259 18.8085 14.5259 19.5382C14.5259 20.2678 15.12 20.8593 15.8528 20.8593C16.5856 20.8593 17.1797 20.2678 17.1797 19.5382C17.1797 18.8085 16.5856 18.2171 15.8528 18.2171Z" fill="#E3BAD1"/>
<path d="M27.1663 10.2906C26.4335 10.2906 25.8394 10.882 25.8394 11.6117C25.8394 12.3413 26.4335 12.9327 27.1663 12.9327C27.8991 12.9327 28.4932 12.3413 28.4932 11.6117C28.4932 10.882 27.8991 10.2906 27.1663 10.2906Z" fill="#E3BAD1"/>
<path d="M32.1946 7.09214C31.4618 7.09214 30.8677 7.68361 30.8677 8.41323C30.8677 9.14284 31.4618 9.73431 32.1946 9.73431C32.9274 9.73431 33.5215 9.14284 33.5215 8.41323C33.5215 7.68361 32.9274 7.09214 32.1946 7.09214Z" fill="#E3BAD1"/>
<path d="M65.4365 23.7796C60.8083 23.7796 57.2656 27.3005 57.2656 31.9289C57.2656 36.5573 60.8368 40.0498 65.4365 40.0498C70.0361 40.0498 73.6073 36.5573 73.6073 31.9289C73.6073 27.3005 70.0646 23.7796 65.4365 23.7796ZM65.4365 25.6821C68.9505 25.6821 71.4932 28.408 71.4932 31.9289C71.4932 35.4498 68.9505 38.1473 65.4365 38.1473C61.9224 38.1473 59.3797 35.4498 59.3797 31.9289C59.3797 28.408 61.9224 25.6821 65.4365 25.6821Z" fill="#586C8A" stroke="#586C8A" stroke-width="0.5" stroke-miterlimit="2" stroke-linejoin="round"/>
<path d="M52.3869 36.4791L52.3862 36.4804L52.3856 36.4818C52.2381 36.8044 52.0251 37.0909 51.7458 37.3413C51.4656 37.5773 51.1438 37.7695 50.7801 37.9177C50.4181 38.0503 50.022 38.1169 49.5915 38.1169H41.0881V32.73H49.5915C50.0215 32.73 50.4172 32.804 50.779 32.9513L50.7801 32.9518L50.7812 32.9522C51.1441 33.0851 51.4651 33.2768 51.745 33.5274C52.0249 33.7781 52.238 34.0647 52.3856 34.3878L52.3862 34.389L52.3869 34.3904C52.5503 34.7122 52.6323 35.0638 52.6323 35.446C52.6323 35.8128 52.5505 36.1568 52.3869 36.4791ZM52.3869 29.3226L52.3862 29.3238L52.3856 29.3252C52.238 29.6481 52.0249 29.9349 51.745 30.1855C51.4645 30.4366 51.1427 30.6363 50.779 30.7843C50.4172 30.9315 50.0215 31.0057 49.5915 31.0057H41.0881V25.5735H49.5915C50.0215 25.5735 50.4172 25.6475 50.779 25.7947L50.7801 25.7953L50.7812 25.7957C51.1441 25.9287 51.4651 26.1203 51.745 26.371C52.0249 26.6216 52.238 26.9083 52.3856 27.2312L52.3862 27.2326L52.3869 27.2339C52.5503 27.5558 52.6323 27.9074 52.6323 28.2895C52.6323 28.6564 52.5505 29.0004 52.3869 29.3226ZM53.9755 30.3867L53.976 30.3861C54.3536 29.7558 54.5422 29.0564 54.5422 28.2895C54.5422 27.6757 54.4135 27.0991 54.156 26.5611C53.8991 26.0242 53.5393 25.5564 53.0776 25.1578C52.6326 24.7443 52.1109 24.4228 51.5132 24.1934C50.9146 23.9637 50.2739 23.8491 49.5915 23.8491H39.1782V39.8412H49.5915C50.2739 39.8412 50.9146 39.7266 51.5132 39.4969C52.1105 39.2676 52.632 38.954 53.077 38.5556C53.5392 38.1571 53.899 37.689 54.156 37.1519C54.4134 36.614 54.5422 36.0453 54.5422 35.446C54.5422 34.6793 54.3536 33.9799 53.976 33.3495C53.6171 32.7507 53.1341 32.2496 52.528 31.8463C53.1337 31.4576 53.6167 30.971 53.9755 30.3867Z" fill="#586C8A" stroke="#586C8A" stroke-width="0.5"/>
</svg>
